<?xml version="1.0" encoding="iso-8859-1"?>
<!-- Generator: Adobe Illustrator 18.0.0, SVG Export Plug-In . SVG Version: 6.00 Build 0)  -->
<!DOCTYPE svg PUBLIC "-//W3C//DTD SVG 1.1//EN" "http://www.w3.org/Graphics/SVG/1.1/DTD/svg11.dtd">
<svg xmlns="http://www.w3.org/2000/svg" xmlns:xlink="http://www.w3.org/1999/xlink" version="1.1" id="Capa_1" x="0px" y="0px" viewBox="0 0 294.516 294.516" style="enable-background:new 0 0 294.516 294.516;" xml:space="preserve" width="512px" height="512px">
<g>
	<path d="M291.587,181.437l-38.895-38.893c-7.717-7.717-21.766-13.535-32.677-13.535h-102c-13.785,0-25,11.215-25,25v3   c0,13.785,11.215,25,25,25h26.857l-5.322,5.322c-3.635,3.635-11.879,6.386-16.971,5.657L36.779,180.73   c-11.287-1.613-24.866,2.239-31.584,8.957c-4.174,4.174-5.958,9.734-4.894,15.254c1.248,6.48,6.191,12.009,13.563,15.168   l87.925,37.682c9.627,4.126,24.546,5.32,34.704,2.781l36.897-9.225c8.631-2.158,21.762-6.676,29.894-10.286l9.745-4.326   c3.602-1.599,9.748-0.316,12.408,2.589l35.205,38.438c1.972,2.154,4.67,3.246,7.377,3.246c2.412,0,4.832-0.868,6.751-2.625   c4.073-3.73,4.351-10.057,0.62-14.129l-35.204-38.439c-8.402-9.176-23.896-12.408-35.272-7.36l-9.745,4.326   c-7.002,3.108-19.197,7.305-26.63,9.163l-36.896,9.225c-5.906,1.477-16.378,0.636-21.974-1.762l-87.202-37.372   c3.063-1.206,7.563-2.067,11.486-1.507l85.801,12.258c11.292,1.618,25.88-3.252,33.94-11.314l11.787-11.787   c8.213-8.213,6.408-15.596,5.252-18.389c-1.157-2.793-5.102-9.289-16.717-9.289h-36c-2.71,0-5-2.29-5-5v-3c0-2.71,2.29-5,5-5h102   c5.58,0,14.589,3.731,18.535,7.678l38.894,38.894c3.906,3.904,10.236,3.904,14.143,0   C295.492,191.674,295.492,185.342,291.587,181.437z" fill="#FFFFFF"/>
	<path d="M78.267,116.008c28.259,0,51.249-22.99,51.249-51.25s-22.99-51.25-51.249-51.25c-28.26,0-51.251,22.99-51.251,51.25   S50.007,116.008,78.267,116.008z M78.267,33.508c17.23,0,31.249,14.019,31.249,31.25s-14.019,31.25-31.249,31.25   c-17.232,0-31.251-14.019-31.251-31.25S61.035,33.508,78.267,33.508z" fill="#FFFFFF"/>
</g>
<g>
</g>
<g>
</g>
<g>
</g>
<g>
</g>
<g>
</g>
<g>
</g>
<g>
</g>
<g>
</g>
<g>
</g>
<g>
</g>
<g>
</g>
<g>
</g>
<g>
</g>
<g>
</g>
<g>
</g>
</svg>
